<svg id="Layer_1" data-name="Layer 1" xmlns="http://www.w3.org/2000/svg" xmlns:xlink="http://www.w3.org/1999/xlink" viewBox="0 0 194.01 38.84"><defs><style>.cls-1,.cls-2,.cls-3{fill:none;}.cls-2{clip-rule:evenodd;}.cls-3{fill-rule:evenodd;}.cls-4{clip-path:url(#clip-path);}.cls-5{clip-path:url(#clip-path-2);}.cls-6{fill:#4063ae;}</style><clipPath id="clip-path" transform="translate(0 0.54)"><rect class="cls-1" width="194.16" height="38.4"/></clipPath><clipPath id="clip-path-2" transform="translate(0 0.54)"><polyline class="cls-2" points="0 0 0 39.51 194.01 39.51 194.01 0"/></clipPath></defs><title>Corteva_Logo</title><g class="cls-4"><g class="cls-5"><path class="cls-6" d="M0,17.81H0L18-.54A19.25,19.25,0,0,0,0,17.81Z" transform="translate(0 0.54)"/></g><g class="cls-5"><path class="cls-6" d="M38.25,18.88h0v-.26H22.87L19.32,15H37.86a17.42,17.42,0,0,0-1.71-4.95H19.72l3.41-3.49H33.91A19.27,19.27,0,0,0,28,1.61l-.13-.14a15.59,15.59,0,0,0-5-1.6L.26,22.77c.27.94.53,1.87.79,2.68A14.86,14.86,0,0,0,2.1,28,18.78,18.78,0,0,0,17.75,38.3L4.86,25.18,7.49,22.5,22.74,38a21.25,21.25,0,0,0,5.13-1.75L10.91,19l2.63-2.68L31,34.15a17.93,17.93,0,0,0,3.42-3.61l-6.71-7h10A18,18,0,0,0,38.25,18.88Z" transform="translate(0 0.54)"/></g><g class="cls-5"><path d="M48.37,12.45h0a9.81,9.81,0,0,1,.66-4,8.35,8.35,0,0,1,2.1-3.08,12.33,12.33,0,0,1,3.16-2,12,12,0,0,1,3.81-.67A12.87,12.87,0,0,1,62,3.35a9.74,9.74,0,0,1,3,1.87L61.38,9.78a2.58,2.58,0,0,0-1.18-.94,4,4,0,0,0-1.71-.4,4.45,4.45,0,0,0-1.44.27,2.37,2.37,0,0,0-1.19.8l-.79,1.2a7.07,7.07,0,0,0-.26,1.74,6.85,6.85,0,0,0,.26,1.61l.79,1.21,1.19.8a4.45,4.45,0,0,0,1.44.27,3.57,3.57,0,0,0,1.71-.4,4.66,4.66,0,0,0,1.18-1.07l3.68,4.55a7.31,7.31,0,0,1-2.89,1.87,10,10,0,0,1-4.07.81,12,12,0,0,1-3.81-.67,12.9,12.9,0,0,1-3.16-2A8.43,8.43,0,0,1,49,16.34,9.64,9.64,0,0,1,48.37,12.45Z" transform="translate(0 0.54)"/></g><g class="cls-5"><path d="M68.35,12.32h0a9.91,9.91,0,0,1,.79-4,7.9,7.9,0,0,1,2.1-2.94,12.33,12.33,0,0,1,3.16-2,11.92,11.92,0,0,1,7.88,0,11.14,11.14,0,0,1,3.29,2,9.87,9.87,0,0,1,2.1,2.94,13,13,0,0,1,.66,4,13,13,0,0,1-.66,4,10.59,10.59,0,0,1-2.1,3.08,11.57,11.57,0,0,1-3.29,2,11.92,11.92,0,0,1-7.88,0,12.9,12.9,0,0,1-3.16-2,8.43,8.43,0,0,1-2.1-3.08A9.91,9.91,0,0,1,68.35,12.32Zm6.44,0h0a6.93,6.93,0,0,0,.26,1.61,4.56,4.56,0,0,0,.79,1.34,2,2,0,0,0,1,.8,2.78,2.78,0,0,0,1.45.27,2.51,2.51,0,0,0,1.44-.27,3.08,3.08,0,0,0,1.19-.8,4.29,4.29,0,0,0,.65-1.34,3.38,3.38,0,0,0,.27-1.61,2.9,2.9,0,0,0-.27-1.61A2.63,2.63,0,0,0,81,9.51a3.08,3.08,0,0,0-1.19-.8,2.56,2.56,0,0,0-1.44-.41,3,3,0,0,0-1.45.41,2,2,0,0,0-1,.8,2.77,2.77,0,0,0-.79,1.2A5.19,5.19,0,0,0,74.79,12.32Z" transform="translate(0 0.54)"/></g><g class="cls-5"><path d="M92.93,3.21h7.75a16.35,16.35,0,0,1,2.63.27,10,10,0,0,1,2.37.94,5.9,5.9,0,0,1,1.71,1.87,6.6,6.6,0,0,1,.65,3,4.88,4.88,0,0,1-.92,2.95,6.6,6.6,0,0,1-2.23,2l4.47,7.36h-6.84L99,15h-.14v6.56H92.93ZM98.84,11h1.84c.27-.13.4-.13.66-.27a1,1,0,0,0,.53-.53,1,1,0,0,0,.26-.67,1.14,1.14,0,0,0-.26-.8c-.13-.27-.27-.41-.4-.41s-.39-.26-.66-.26h-2Z" transform="translate(0 0.54)"/></g><g class="cls-5"><polygon points="123.29 22.1 123.29 22.1 117.24 22.1 117.24 8.97 112.91 8.97 112.91 3.75 127.76 3.75 127.76 8.97 123.29 8.97 123.29 22.1"/></g><g class="cls-5"><polygon points="133.15 3.75 133.15 3.75 145.64 3.75 145.64 8.84 138.93 8.84 138.93 10.45 145.11 10.45 145.11 15.27 138.93 15.27 138.93 17.01 146.03 17.01 146.03 22.1 133.15 22.1 133.15 3.75"/></g><g class="cls-5"><polygon points="149.97 3.75 149.97 3.75 156.81 3.75 159.83 15.13 159.96 15.13 162.72 3.75 169.56 3.75 163.12 22.1 156.41 22.1 149.97 3.75"/></g><g class="cls-5"><path d="M176.93,3.21h6.43l7,18.35h-6.57l-.93-2.68h-5.78l-.93,2.68h-6.3Zm3,6.43h0L178.5,14.2h2.89Z" transform="translate(0 0.54)"/></g><g class="cls-5"><polygon points="189.66 4.29 189.66 4.29 189.66 6.56 189.01 6.56 189.01 4.29 188.23 4.29 188.23 3.75 190.33 3.75 190.33 4.29 189.66 4.29"/></g><g class="cls-5"><polygon points="193.36 6.56 193.36 6.56 193.48 4.55 193.36 4.55 192.69 6.56 192.29 6.56 191.64 4.55 191.5 4.55 191.64 6.56 190.98 6.56 190.98 3.75 191.9 3.75 192.55 5.49 193.09 3.75 194.01 3.75 194.01 6.56 193.36 6.56"/></g><g class="cls-5"><path d="M55.73,28h0v6.43H54.42v-.94a2.8,2.8,0,0,1-2.24,1.07,3.35,3.35,0,0,1,0-6.69,2.8,2.8,0,0,1,2.24,1.07V28Zm-1.31,3.22h0a2,2,0,0,0-2-2,2,2,0,0,0-2.1,2,2.1,2.1,0,0,0,2.1,2.14A2.08,2.08,0,0,0,54.42,31.21Z" transform="translate(0 0.54)"/></g><g class="cls-5"><path d="M64.14,28h0v6.16a3.06,3.06,0,0,1-3.28,3.08A3,3,0,0,1,58,35.62L59.15,35c.26.53.66.93,1.84.93a1.71,1.71,0,0,0,1.84-1.74v-.8a2.62,2.62,0,0,1-2.24,1.07,3.22,3.22,0,0,1-3.15-3.21,3.25,3.25,0,0,1,3.15-3.35,2.62,2.62,0,0,1,2.24,1.07V28Zm-1.31,3.22h0a2,2,0,0,0-2-2,2,2,0,0,0-2.11,2,2.06,2.06,0,0,0,2.11,2A2,2,0,0,0,62.83,31.21Z" transform="translate(0 0.54)"/></g><g class="cls-5"><path d="M69.53,28h0v1.47a1.61,1.61,0,0,0-2,1.75v3.21H66.25V28h1.31v1.07A2,2,0,0,1,69.53,28Z" transform="translate(0 0.54)"/></g><g class="cls-5"><path d="M70.85,26.25h0a.89.89,0,0,1,.78-.94.91.91,0,0,1,.93.94.89.89,0,0,1-.93.8A.85.85,0,0,1,70.85,26.25ZM71,28h1.44v6.43H71Z" transform="translate(0 0.54)"/></g><g class="cls-5"><path d="M79,32.68h0c0,1.2-1.06,1.87-2.5,1.87A2.54,2.54,0,0,1,74,33.08l1.18-.67a1.31,1.31,0,0,0,1.32.94c.66,0,1.18-.27,1.18-.67,0-1.21-3.42-.54-3.42-2.81a2.1,2.1,0,0,1,2.24-2,2.6,2.6,0,0,1,2.37,1.34l-1.19.67c-.13-.54-.66-.67-1.18-.67s-.92.13-.92.67C75.58,30.94,79,30.27,79,32.68Z" transform="translate(0 0.54)"/></g><g class="cls-5"><path d="M80.18,31.21h0a3.28,3.28,0,0,1,3.28-3.35,3.13,3.13,0,0,1,2.9,1.74l-1.19.67a1.75,1.75,0,0,0-1.71-1.07,2,2,0,0,0-2,2,2,2,0,0,0,2,2,1.88,1.88,0,0,0,1.71-.93l1.19.67a3,3,0,0,1-2.9,1.6A3.28,3.28,0,0,1,80.18,31.21Z" transform="translate(0 0.54)"/></g><g class="cls-5"><path d="M87.67,26.25h0a.89.89,0,0,1,.79-.94.9.9,0,0,1,.92.94.88.88,0,0,1-.92.8A.85.85,0,0,1,87.67,26.25ZM87.8,28h1.32v6.43H87.8Z" transform="translate(0 0.54)"/></g><g class="cls-5"><path d="M94.37,33.35h0A2,2,0,0,0,96,32.54l1,.67a2.84,2.84,0,0,1-2.76,1.34,3.23,3.23,0,0,1-3.41-3.34,3.31,3.31,0,0,1,3.41-3.35,3.26,3.26,0,0,1,3.16,3.35c0,.26-.13.4-.13.66h-5A2,2,0,0,0,94.37,33.35ZM96,30.67h0a1.59,1.59,0,0,0-1.71-1.47,1.87,1.87,0,0,0-2,1.47Z" transform="translate(0 0.54)"/></g><g class="cls-5"><path d="M104.76,30.54h0v3.88h-1.32V30.67A1.32,1.32,0,0,0,102,29.2c-.92,0-1.58.53-1.58,1.87v3.35H99.11V28h1.31v.94a2.14,2.14,0,0,1,2-1.07A2.38,2.38,0,0,1,104.76,30.54Z" transform="translate(0 0.54)"/></g><g class="cls-5"><path d="M106.34,31.21h0a3.31,3.31,0,0,1,3.41-3.35,3,3,0,0,1,2.76,1.74l-1.18.67a1.75,1.75,0,0,0-1.71-1.07,1.93,1.93,0,0,0-1.84,2,1.85,1.85,0,0,0,1.84,2,1.88,1.88,0,0,0,1.71-.93l1.18.67a2.93,2.93,0,0,1-2.76,1.6A3.31,3.31,0,0,1,106.34,31.21Z" transform="translate(0 0.54)"/></g><g class="cls-5"><path d="M117,33.35h0a1.82,1.82,0,0,0,1.58-.81l1.18.67A3.1,3.1,0,0,1,117,34.55a3.17,3.17,0,0,1-3.42-3.34,3.21,3.21,0,0,1,3.29-3.35A3.25,3.25,0,0,1,120,31.21v.66h-5A1.79,1.79,0,0,0,117,33.35Zm1.71-2.68h0a1.8,1.8,0,0,0-1.84-1.47A1.66,1.66,0,0,0,115,30.67Z" transform="translate(0 0.54)"/></g></g></svg>